<svg xmlns:xlink="http://www.w3.org/1999/xlink" xmlns="http://www.w3.org/2000/svg" style="width:100%;height:100%" width="20" height="20"><defs><svg viewBox="0 0 20 20" id="svg12334367300"><g id="ss12334367300_1"><path d="M 0 20 L 0 0 L 20 0 L 20 20 Z" fill="#000000" fill-opacity="0"></path><path d="M 10 0 C 8.687 0 7.386 0.265 6.173 0.78 C 4.96 1.295 3.858 2.05 2.929 3.002 C 1.054 4.924 0 7.53 0 10.248 C 0 14.778 2.87 18.621 6.84 19.984 C 7.34 20.066 7.5 19.748 7.5 19.472 L 7.5 17.74 C 4.73 18.355 4.14 16.366 4.14 16.366 C 3.68 15.178 3.03 14.86 3.03 14.86 C 2.12 14.225 3.1 14.245 3.1 14.245 C 4.1 14.317 4.63 15.301 4.63 15.301 C 5.5 16.858 6.97 16.397 7.54 16.151 C 7.63 15.485 7.89 15.034 8.17 14.778 C 5.95 14.522 3.62 13.64 3.62 9.736 C 3.62 8.598 4 7.686 4.65 6.959 C 4.55 6.702 4.2 5.637 4.75 4.253 C 4.75 4.253 5.59 3.976 7.5 5.298 C 8.29 5.073 9.15 4.96 10 4.96 C 10.85 4.96 11.71 5.073 12.5 5.298 C 14.41 3.976 15.25 4.253 15.25 4.253 C 15.8 5.637 15.45 6.702 15.35 6.959 C 16 7.686 16.38 8.598 16.38 9.736 C 16.38 13.651 14.04 14.512 11.81 14.768 C 12.17 15.085 12.5 15.711 12.5 16.664 L 12.5 19.472 C 12.5 19.748 12.66 20.076 13.17 19.984 C 17.14 18.611 20 14.778 20 10.248 C 20 8.902 19.741 7.57 19.239 6.326 C 18.736 5.083 18 3.953 17.071 3.002 C 16.142 2.05 15.04 1.295 13.827 0.78 C 12.614 0.265 11.313 0 10 0 Z" fill="#111111"></path></g></svg></defs><g><g id="ss12334367300_1"><path d="M 0 20 L 0 0 L 20 0 L 20 20 Z" fill="#000000" fill-opacity="0"></path><path d="M 10 0 C 8.687 0 7.386 0.265 6.173 0.78 C 4.96 1.295 3.858 2.05 2.929 3.002 C 1.054 4.924 0 7.53 0 10.248 C 0 14.778 2.87 18.621 6.84 19.984 C 7.34 20.066 7.5 19.748 7.5 19.472 L 7.5 17.74 C 4.73 18.355 4.14 16.366 4.14 16.366 C 3.68 15.178 3.03 14.86 3.03 14.86 C 2.12 14.225 3.1 14.245 3.1 14.245 C 4.1 14.317 4.63 15.301 4.63 15.301 C 5.5 16.858 6.97 16.397 7.54 16.151 C 7.63 15.485 7.89 15.034 8.17 14.778 C 5.95 14.522 3.62 13.64 3.62 9.736 C 3.62 8.598 4 7.686 4.65 6.959 C 4.55 6.702 4.2 5.637 4.75 4.253 C 4.75 4.253 5.59 3.976 7.5 5.298 C 8.29 5.073 9.15 4.96 10 4.96 C 10.85 4.96 11.71 5.073 12.5 5.298 C 14.41 3.976 15.25 4.253 15.25 4.253 C 15.8 5.637 15.45 6.702 15.35 6.959 C 16 7.686 16.38 8.598 16.38 9.736 C 16.38 13.651 14.04 14.512 11.81 14.768 C 12.17 15.085 12.5 15.711 12.5 16.664 L 12.5 19.472 C 12.5 19.748 12.66 20.076 13.17 19.984 C 17.14 18.611 20 14.778 20 10.248 C 20 8.902 19.741 7.57 19.239 6.326 C 18.736 5.083 18 3.953 17.071 3.002 C 16.142 2.05 15.04 1.295 13.827 0.78 C 12.614 0.265 11.313 0 10 0 Z" fill="#111111"></path></g></g></svg>