<svg xmlns:xlink="http://www.w3.org/1999/xlink" xmlns="http://www.w3.org/2000/svg" style="width:100%;height:100%" viewBox="0 0 24 24" preserveAspectRatio="none" width="24" height="24"><defs><svg width="24" height="24" viewBox="0 0 24 24" fill="none" id="svg714651099_1052">
<g clip-path="url(#svg714651099_1052_clip0_1638_3742)" fill="none">
<path d="M23.47 6.13203C23.3323 5.6233 23.0638 5.15951 22.6911 4.78684C22.3185 4.41417 21.8547 4.14562 21.346 4.00794C19.4835 3.5 11.9878 3.5 11.9878 3.5C11.9878 3.5 4.49177 3.51537 2.62933 4.02331C2.1206 4.161 1.65681 4.42956 1.28415 4.80225C0.911497 5.17494 0.642976 5.63875 0.505331 6.1475C-0.0580132 9.45669 -0.276545 14.4991 0.520799 17.6759C0.658459 18.1847 0.926986 18.6485 1.29964 19.0211C1.6723 19.3938 2.13608 19.6623 2.6448 19.8C4.50724 20.308 12.0031 20.308 12.0031 20.308C12.0031 20.308 19.4989 20.308 21.3612 19.8C21.87 19.6624 22.3338 19.3938 22.7064 19.0211C23.0791 18.6485 23.3477 18.1847 23.4853 17.6759C24.0795 14.3621 24.2626 9.32272 23.47 6.13203Z" fill="#FF0000"></path>
<path d="M9.60156 15.5061L15.8198 11.9044L9.60156 8.30273V15.5061Z" fill="#FFFFFF"></path>
</g>
<defs>
<clipPath id="svg714651099_1052_clip0_1638_3742">
<rect width="24" height="16.875" fill="white" transform="translate(0 3.5)"></rect>
</clipPath>
</defs>
</svg></defs><g>
<g clip-path="url(#svg714651099_1052_clip0_1638_3742)" fill="none">
<path d="M23.47 6.13203C23.3323 5.6233 23.0638 5.15951 22.6911 4.78684C22.3185 4.41417 21.8547 4.14562 21.346 4.00794C19.4835 3.5 11.9878 3.5 11.9878 3.5C11.9878 3.5 4.49177 3.51537 2.62933 4.02331C2.1206 4.161 1.65681 4.42956 1.28415 4.80225C0.911497 5.17494 0.642976 5.63875 0.505331 6.1475C-0.0580132 9.45669 -0.276545 14.4991 0.520799 17.6759C0.658459 18.1847 0.926986 18.6485 1.29964 19.0211C1.6723 19.3938 2.13608 19.6623 2.6448 19.8C4.50724 20.308 12.0031 20.308 12.0031 20.308C12.0031 20.308 19.4989 20.308 21.3612 19.8C21.87 19.6624 22.3338 19.3938 22.7064 19.0211C23.0791 18.6485 23.3477 18.1847 23.4853 17.6759C24.0795 14.3621 24.2626 9.32272 23.47 6.13203Z" fill="#FF0000"></path>
<path d="M9.60156 15.5061L15.8198 11.9044L9.60156 8.30273V15.5061Z" fill="#FFFFFF"></path>
</g>
<defs>
<clippath id="svg714651099_1052_clip0_1638_3742">
<rect width="24" height="16.875" fill="white" transform="translate(0 3.5)"></rect>
</clippath>
</defs>
</g></svg>